<mxfile host="app.diagrams.net" modified="2023-12-27T21:57:01.969Z" agent="Mozilla/5.0 (Linux; Android 5.1; OPPO F1s) AppleWebKit/537.36 (KHTML, like Gecko) Chrome/95.0.4638.74 Mobile Safari/537.36" version="22.1.15" etag="Aa3ipJrl6I5DfcMabRXi" type="github">
  <diagram name="Halaman-1" id="80go7K0Tk4YH0JzyOYFh">
    <mxGraphModel>
      <root>
        <mxCell id="0" />
        <mxCell id="1" parent="0" />
      </root>
    </mxGraphModel>
  </diagram>
</mxfile>
